<?xml version="1.0" standalone="no"?>
<svg width="64" height="64" viewBox="0 0 384 384" version="1.1" xmlns="http://www.w3.org/2000/svg">
  <path d="M192 384c106 0 192 -86 192 -192s-86 -192 -192 -192s-192 86 -192 192s86 192 192 192zM314 296c-17 -25 -47 -47 -85 -64c5 -10 9 -20 13 -31c33 3 75 4 110 2c-2 35 -16 68 -38 93zM192 352c-14 0 -26 -2 -39 -5c23 -23 43 -53 62 -87c34 14 62 33 79 55 c-28 23 -63 37 -102 37zM120 334c-41 -21 -71 -58 -83 -103h25c44 0 85 6 121 17c-19 34 -40 63 -63 86zM32 200v-8c0 -40 15 -78 40 -106c24 45 67 83 122 106c4 2 8 3 14 4c-3 8 -6 16 -10 24c-40 -13 -88 -20 -138 -21c-9 0 -19 1 -28 1zM192 32c20 0 39 3 57 10 c-3 25 -8 53 -15 79c-4 17 -10 33 -16 49c-7 -2 -13 -4 -17 -6c-48 -22 -86 -56 -107 -98c27 -21 61 -34 98 -34zM278 58c40 26 68 67 73 116c-30 2 -68 3 -99 0c4 -12 9 -25 12 -38c7 -27 11 -52 14 -78z" transform="matrix(1,0,0,-1,0,384)"/>
</svg>