<?xml version="1.0" standalone="no"?>
<svg width="64" height="64" viewBox="0 0 512 384" version="1.1" xmlns="http://www.w3.org/2000/svg">
  <path d="M335 263v-66l113 35v-89v-88l-113 35v-65c0 -5 -4 -9 -9 -9h-317c-5 0 -9 4 -9 9v12v55v171c0 5 4 9 9 9h208v38c0 4 -6 10 -10 10h-176v48h178c36 0 65 -29 65 -64v-32h52c5 0 9 -4 9 -9zM226 107c20 0 36 16 36 36s-16 35 -36 35s-36 -15 -36 -35c0 -10 4 -19 11 -26 h-68c7 7 11 16 11 26c0 20 -16 36 -36 36s-36 -16 -36 -36s16 -36 36 -36h12h95h11z" transform="matrix(1,0,0,-1,0,384)"/>
</svg>