<?xml version="1.0" standalone="no"?>
<svg width="64" height="64" viewBox="0 0 384 384" version="1.1" xmlns="http://www.w3.org/2000/svg">
  <path d="M96 48c13 0 24 -11 24 -24s-11 -24 -24 -24s-24 11 -24 24s11 24 24 24zM320 48c13 0 24 -11 24 -24s-11 -24 -24 -24s-24 11 -24 24s11 24 24 24zM384 320l-16 -128l-271 -48l5 -30c7 -34 21 -34 26 -34h240v-16h-240c-11 0 -21 5 -28 14c-6 8 -11 19 -13 33l-43 234v0 c-2 8 -3 12 -7 16c-6 5 -18 7 -37 7v16c23 0 38 -4 47 -11c7 -6 10 -14 12 -21z" transform="matrix(1,0,0,-1,0,384)"/>
</svg>