<?xml version="1.0" standalone="no"?>
<svg width="64" height="64" viewBox="0 0 512 384" version="1.1" xmlns="http://www.w3.org/2000/svg">
  <path d="M118 165c52 0 102 -41 90 -102c-11 -52 -54 -71 -90 -77c-30 -5 -100 0 -118 35c24 9 34 26 34 49c0 49 32 95 84 95zM436 388c13 -13 17 -30 5 -45l-154 -175c2 -9 1 -17 -3 -23l-50 -58v0v0c-2 -2 -4 -2 -6 0c-1 1 -1 2 -1 3v1c2 53 -41 87 -89 90v0h-2s-2 0 -2 1 c-2 2 -2 4 0 6l59 49c6 4 14 4 23 2l175 154c15 12 32 8 45 -5zM134 188v0v0v0z" transform="matrix(1,0,0,-1,0,384)"/>
</svg>